<svg width="120" height="24" viewBox="0 0 120 24" fill="none" xmlns="http://www.w3.org/2000/svg">
<g clip-path="url(#clip0_2_6)">
<path d="M31.4089 9.1845V8.29562C31.4091 7.20618 31.1947 6.12736 30.7779 5.12079C30.3611 4.11423 29.7501 3.19966 28.9797 2.4293C28.2094 1.65894 27.2948 1.0479 26.2882 0.631084C25.2817 0.214269 24.2029 -0.000156232 23.1134 6.12004e-05H8.29562C6.09627 0.00254392 3.9877 0.877336 2.43252 2.43252C0.877335 3.9877 0.00254375 6.09627 6.10352e-05 8.29562V15.7045C0.00254375 17.9038 0.877335 20.0124 2.43252 21.5676C3.9877 23.1228 6.09627 23.9975 8.29562 24H23.1112C25.3114 23.9999 27.4216 23.126 28.9777 21.5704C30.5337 20.0147 31.4082 17.9048 31.4089 15.7045V14.8156H18.5178V15.7045C18.5197 16.7599 18.2642 17.7999 17.7735 18.7344C17.2827 19.6688 16.5715 20.4694 15.7015 21.067C15.3784 20.8434 15.0759 20.5913 14.7977 20.3138L14.7975 20.3134C13.6548 19.1772 12.9773 17.6555 12.8976 16.0461C13.8803 14.9273 14.4222 13.4892 14.4222 12.0002C14.4223 10.5112 13.8804 9.07304 12.8978 7.95426C12.95 6.9586 13.2299 5.98817 13.716 5.11766C14.202 4.24715 14.8813 3.49976 15.7016 2.93298C16.5717 3.53067 17.283 4.33133 17.7741 5.26571C18.2651 6.20009 18.5212 7.24006 18.52 8.29562V9.1845H31.4089ZM17.8663 21.5708C19.2095 20.2352 20.051 18.4772 20.2488 16.5934H29.5714C29.3555 18.1534 28.5824 19.5826 27.395 20.6172C26.2076 21.6518 24.686 22.2219 23.1112 22.2223H17.1334C17.3903 22.0197 17.635 21.8022 17.8663 21.5708ZM11.6069 9.18406C12.2764 9.96921 12.6442 10.9672 12.6445 11.999C12.6447 13.0309 12.2773 14.029 11.6081 14.8145H1.77782V9.18406H11.6069ZM13.5405 21.5708C13.6637 21.694 13.7911 21.8135 13.9225 21.9293C13.8733 21.9445 13.8242 21.9601 13.7746 21.9741C13.7187 21.99 13.6626 22.005 13.6064 22.0194C13.5166 22.0422 13.4265 22.0635 13.3357 22.0824C13.2775 22.0946 13.2189 22.1051 13.1603 22.1157C13.0733 22.1313 12.9863 22.1466 12.8987 22.1588C12.823 22.1692 12.7468 22.1766 12.6706 22.1843C12.5991 22.1917 12.5278 22.2005 12.4561 22.2055C12.305 22.2158 12.1531 22.2223 12 22.2223H8.29562C6.72152 22.2201 5.20123 21.6492 4.01488 20.6146C2.82854 19.58 2.05609 18.1515 1.83987 16.5923H11.1591C11.3563 18.4764 12.1974 20.2348 13.5405 21.5708ZM11.1588 7.40629H1.84006C2.05661 5.84741 2.82918 4.41929 4.01545 3.385C5.20172 2.35071 6.72178 1.77993 8.29562 1.7778H12C12.1529 1.7778 12.3045 1.78426 12.4553 1.79451C12.5292 1.79966 12.6025 1.80862 12.676 1.81632C12.7496 1.82379 12.8234 1.83091 12.8965 1.84089C12.9875 1.85354 13.078 1.86938 13.1683 1.88587C13.2224 1.89564 13.2764 1.90524 13.3301 1.91642C13.4259 1.93633 13.5211 1.95885 13.6158 1.9831C13.6652 1.99568 13.7143 2.0089 13.7633 2.02276C13.8163 2.03763 13.8687 2.05444 13.9212 2.07066C12.3658 3.44131 11.3802 5.34495 11.1588 7.40629ZM17.8665 2.42929C17.6353 2.19793 17.3906 1.98039 17.1338 1.77781H23.1134C24.6883 1.7776 26.2099 2.34756 27.397 3.38231C28.5842 4.41706 29.3566 5.84664 29.5714 7.40674H20.251C20.0532 5.52245 19.2109 3.76423 17.8665 2.42929Z" fill="#5147DD"/>
<path d="M53.2209 24C51.5944 24.0146 49.9818 23.6988 48.4809 23.0718C47.0664 22.4889 45.7831 21.6283 44.7069 20.5408C43.6308 19.4533 42.7837 18.161 42.2158 16.7404C41.614 15.2561 41.3099 13.6679 41.3208 12.0663V12C41.3089 10.4037 41.613 8.82073 42.2158 7.34251C42.7932 5.92454 43.6371 4.63044 44.7019 3.53031C45.7858 2.42088 47.0824 1.54148 48.5141 0.944746C50.0684 0.300446 51.7375 -0.0209878 53.4199 -1.23067e-05C54.4151 -0.00790025 55.4088 0.0809459 56.3868 0.265277C57.2218 0.424268 58.0382 0.668621 58.8232 0.994488C59.5364 1.29527 60.2144 1.67324 60.8453 2.12163C61.459 2.55954 62.0356 3.04733 62.5691 3.58006L59.3206 7.32593C58.4904 6.56124 57.559 5.9143 56.5527 5.40328C55.5657 4.92866 54.4818 4.69035 53.3868 4.70723C52.4562 4.6986 51.5347 4.89077 50.6851 5.27063C49.8717 5.63543 49.1435 6.16618 48.5473 6.82887C47.9436 7.50325 47.4713 8.28458 47.1548 9.13257C46.8195 10.0281 46.651 10.9775 46.6577 11.9337V12C46.6519 12.9615 46.8204 13.9162 47.1548 14.8177C47.467 15.6691 47.9334 16.4557 48.5307 17.138C49.1378 17.825 49.8858 18.373 50.7238 18.7449C51.5618 19.1167 52.4701 19.3036 53.3868 19.2928C54.5512 19.3291 55.7067 19.0786 56.7516 18.5636C57.7455 18.022 58.6647 17.3534 59.4861 16.5746L62.7349 19.8562C62.1604 20.4767 61.5399 21.0529 60.8785 21.5799C60.2282 22.0941 59.5221 22.5333 58.7735 22.8894C57.9758 23.2659 57.1355 23.5441 56.2708 23.7181C55.2664 23.9152 54.2445 24.0096 53.2209 24Z" fill="#140F37"/>
<path d="M65.983 0.397934H71.0878V9.58023H80.5022V0.397934H85.607V23.6021H80.5022V14.2871H71.0878V23.6021H65.983V0.397934Z" fill="#140F37"/>
<path d="M90.5792 0.397934H95.6843V23.6021H90.5792V0.397934Z" fill="#140F37"/>
<path d="M100.656 0.397929H110.137C111.404 0.378082 112.665 0.574217 113.866 0.977915C114.897 1.32769 115.845 1.88624 116.651 2.61872C117.413 3.32671 118.013 4.1921 118.408 5.15489C118.827 6.19174 119.035 7.30165 119.021 8.41992V8.48623C119.047 9.70833 118.798 10.9206 118.292 12.0331C117.825 13.0248 117.139 13.8976 116.286 14.5855C115.401 15.2884 114.388 15.812 113.303 16.1269C112.114 16.477 110.879 16.6502 109.64 16.6409H105.761V23.6021H100.656V0.397929ZM109.806 12.0995C111.087 12.0995 112.082 11.7624 112.789 11.0884C113.133 10.7697 113.405 10.382 113.587 9.9506C113.77 9.51926 113.86 9.0541 113.85 8.58573V8.51941C113.882 8.02656 113.798 7.53305 113.605 7.07834C113.412 6.62363 113.116 6.22033 112.739 5.90068C111.862 5.26101 110.79 4.94477 109.706 5.00566H105.761V12.0995H109.806Z" fill="#140F37"/>
</g>
<defs>
<clipPath id="clip0_2_6">
<rect width="119.021" height="24" fill="white"/>
</clipPath>
</defs>
</svg>
