<svg xmlns="http://www.w3.org/2000/svg" xmlns:xlink="http://www.w3.org/1999/xlink" width="210.417" height="36" viewBox="0 0 210.417 36">
  <defs>
    <linearGradient id="linear-gradient" x1="0.308" y1="0.814" x2="0.827" y2="0.309" gradientUnits="objectBoundingBox">
      <stop offset="0" stop-color="#0019ac"/>
      <stop offset="1" stop-color="#37d1ad"/>
    </linearGradient>
    <clipPath id="clip-path">
      <rect id="長方形_17808" data-name="長方形 17808" width="37.69" height="36" fill="url(#linear-gradient)"/>
    </clipPath>
  </defs>
  <g id="グループ_41529" data-name="グループ 41529" transform="translate(8180.995 592)">
    <path id="パス_63807" data-name="パス 63807" d="M924.141,130.952a2.938,2.938,0,0,1-2.9,3.012,2.431,2.431,0,0,1-2.156-1.136v.988H918.1V125.8h.988v3.276a2.487,2.487,0,0,1,2.156-1.136,2.949,2.949,0,0,1,2.9,3.012m-1,0a2.033,2.033,0,1,0-2.025,2.041,2,2,0,0,0,2.025-2.041" transform="translate(-8947.984 -697.108)"/>
    <path id="パス_63809" data-name="パス 63809" d="M961.528,139.7l-2.337,6.074a2.518,2.518,0,0,1-2.535,1.926v-.922a1.519,1.519,0,0,0,1.547-1.169l.1-.214-2.5-5.7h1.07l1.942,4.477,1.646-4.477Z" transform="translate(-8979.479 -708.72)"/>
    <path id="パス_63808" data-name="パス 63808" d="M1013.076,127.222a3.828,3.828,0,0,1-4.132,3.835,4.379,4.379,0,1,1-.017-8.757,4.2,4.2,0,0,1,3.654,2.041l-.971.56a3,3,0,0,0-2.7-1.514,3.284,3.284,0,1,0,.049,6.568,2.762,2.762,0,0,0,3-2.222h-3.095v-1h4.214Z" transform="translate(-9020.162 -694.184)"/>
    <path id="パス_63810" data-name="パス 63810" d="M1066.23,137.2v1.1a1.686,1.686,0,0,0-1.877,1.844v3.193H1063.3v-6.024h1.054v1a1.909,1.909,0,0,1,1.877-1.119" transform="translate(-9069.284 -706.632)"/>
    <path id="パス_63811" data-name="パス 63811" d="M1084.1,140.16a3.169,3.169,0,1,1,3.16,3.16,3.14,3.14,0,0,1-3.16-3.16m5.3,0a2.132,2.132,0,1,0-2.14,2.14,2.1,2.1,0,0,0,2.14-2.14" transform="translate(-9086.66 -706.465)"/>
    <path id="パス_63812" data-name="パス 63812" d="M1127.9,140.16a3.169,3.169,0,1,1,3.16,3.16,3.14,3.14,0,0,1-3.16-3.16m5.3,0a2.132,2.132,0,1,0-2.14,2.14,2.1,2.1,0,0,0,2.14-2.14" transform="translate(-9123.25 -706.465)"/>
    <path id="パス_63813" data-name="パス 63813" d="M1174.441,137.9l-2.4,6.025h-1.218L1168.4,137.9h1.135l1.893,4.905,1.893-4.905Z" transform="translate(-9157.084 -707.216)"/>
    <path id="パス_63814" data-name="パス 63814" d="M1210.26,142.417a1.954,1.954,0,0,0,1.728-.872l.889.51a3.035,3.035,0,0,1-2.65,1.366,3.161,3.161,0,1,1-.066-6.321,3.037,3.037,0,0,1,3,3.177,4.682,4.682,0,0,1-.033.477h-5.053a2.075,2.075,0,0,0,2.189,1.662m-2.173-2.6h4.016a1.914,1.914,0,0,0-1.942-1.745,1.977,1.977,0,0,0-2.074,1.745" transform="translate(-9189.331 -706.548)"/>
    <path id="パス_63815" data-name="パス 63815" d="M1254.759,141.527c0,1.119-.971,1.811-2.255,1.811a2.459,2.459,0,0,1-2.4-1.416l.905-.51a1.468,1.468,0,0,0,1.5.938c.642,0,1.185-.23,1.185-.823,0-1.284-3.374-.56-3.374-2.732a1.928,1.928,0,0,1,2.14-1.794,2.348,2.348,0,0,1,2.173,1.251l-.873.494a1.327,1.327,0,0,0-1.284-.774c-.543,0-1.07.263-1.07.807-.016,1.284,3.358.527,3.358,2.749" transform="translate(-9225.336 -706.465)"/>
    <g id="グループ_40103" data-name="グループ 40103" transform="translate(-8136.531 -584.575)">
      <path id="パス_63135" data-name="パス 63135" d="M355.068,96.8a6.568,6.568,0,1,0,6.568,6.568,6.575,6.575,0,0,0-6.568-6.568m0,10.749a4.148,4.148,0,1,1,4.148-4.148,4.152,4.152,0,0,1-4.148,4.148" transform="translate(-335.611 -88.306)"/>
      <path id="パス_63136" data-name="パス 63136" d="M442.6,104.488h0v6.37h2.535v-6.3A3.571,3.571,0,0,1,448,101.1c.132-.033.527-.066.527-.066V98.2l-.527.066a6.292,6.292,0,0,0-5.4,6.222" transform="translate(-414.222 -89.476)"/>
      <path id="パス_63137" data-name="パス 63137" d="M799.835,74.643V62.1H797.3V74.692h0a6.305,6.305,0,0,0,5.383,6.222l.527.066V78.165s-.4-.033-.527-.066a3.573,3.573,0,0,1-2.848-3.457" transform="translate(-710.537 -59.318)"/>
      <path id="パス_63138" data-name="パス 63138" d="M844.682,78.083a3.529,3.529,0,0,1-2.848-3.457V62.1H839.3V74.692h0a6.305,6.305,0,0,0,5.382,6.222l.527.066V78.165c0-.016-.4-.049-.527-.082" transform="translate(-745.624 -59.318)"/>
      <path id="パス_63139" data-name="パス 63139" d="M709.2,96.966a6.572,6.572,0,0,0,.313,13.135,6.4,6.4,0,0,0,5.531-2.337l-2.272-1.119a4.26,4.26,0,0,1-3.177,1.169,4.2,4.2,0,0,1-4.148-3h9.745a.79.79,0,0,0,.79-.79v-.576a6.419,6.419,0,0,0-6.782-6.485m-3.7,5.728a4.223,4.223,0,0,1,4.1-3.457,4.157,4.157,0,0,1,4.049,3.457Z" transform="translate(-631.72 -88.44)"/>
      <path id="パス_63140" data-name="パス 63140" d="M507.961,67.845h-3.424l-6.5,5.909V62.1H495.5V80.684h2.535V77.161l2.486-2.337,4.741,5.86h3.424L502.479,73Z" transform="translate(-458.415 -59.318)"/>
      <path id="パス_63141" data-name="パス 63141" d="M591.269,105.115,588.421,97h-3.144l-2.848,8.115L579.647,97H576.8l4.576,12.823v.016h2.107v-.033l3.358-9.564,3.375,9.58v.016h2.107v-.033L596.9,97H594.05Z" transform="translate(-526.332 -88.473)"/>
      <path id="パス_63142" data-name="パス 63142" d="M273.015,50.467a2.41,2.41,0,0,1,2.568-2.535h9.053V45.2h-9.053a5.375,5.375,0,0,0-5.383,5.284V66.467h2.815v-9.81h9.547V53.99h-9.547Z" transform="translate(-270.2 -45.2)"/>
    </g>
    <g id="グループ_41529-2" data-name="グループ 41529" transform="translate(-8180.995 -592)">
      <g id="グループ_41529-3" data-name="グループ 41529" clip-path="url(#clip-path)">
        <path id="パス_64682" data-name="パス 64682" d="M14.927,24.393,11.867,27.3a1.943,1.943,0,1,0,2.676,2.817l3.06-2.906a1.943,1.943,0,1,0-2.676-2.817m19.482-7.809L17.5,32.649a1.943,1.943,0,1,0,2.676,2.817L37.085,19.4a1.943,1.943,0,1,0-2.676-2.817M14.435,14.159l-8.2,7.789a1.943,1.943,0,0,0,2.677,2.818l8.2-7.789a1.943,1.943,0,0,0-2.677-2.818m14.343-2.926-8.2,7.789a1.943,1.943,0,1,0,2.676,2.817l8.2-7.789a1.943,1.943,0,0,0-2.677-2.817m-5.631-5.35L20.087,8.79a1.943,1.943,0,0,0,2.677,2.818L25.823,8.7a1.943,1.943,0,0,0-2.677-2.818M17.515.534.6,16.6a1.943,1.943,0,0,0,2.677,2.817L20.192,3.351A1.943,1.943,0,0,0,17.515.534" transform="translate(0 0)" fill="url(#linear-gradient)"/>
      </g>
    </g>
  </g>
</svg>
