<svg xmlns="http://www.w3.org/2000/svg" width="154" height="24" fill="none" xmlns:v="https://www.mindvalley.com"><g clip-path="url(#A)" fill="#7a12d4"><path d="M3.311 5.507v13.007H0V.376h3.216l5.605 7.161L14.566.4h3.098v18.114h-3.311V5.437l-5.415 6.599h-.384L3.311 5.507zm26.85 13.007h-3.5V4.918h2.956l.307 2.837c.852-1.939 2.601-3.216 5.203-3.216 3.688 0 5.722 2.341 5.722 5.983v7.992h-3.5v-7.14c0-2.43-.852-3.926-3.358-3.926-2.625 0-3.836 1.632-3.836 4.397l.005 6.668zm24.67-2.742c-.85 1.893-2.624 3.069-5.321 3.069-3.83 0-6.573-2.27-6.573-7.046v-.189c0-4.541 2.671-7.047 6.691-7.047 2.389 0 4.115.969 5.06 2.648V.4h3.382v18.114h-2.936l-.304-2.743zm-.027-3.991v-.142c0-2.625-1.584-4.257-4.162-4.257-2.79 0-4.368 1.584-4.368 4.257v.166c0 2.79 1.672 4.138 4.273 4.138 2.72-.005 4.257-1.542 4.257-4.162zm11.005 6.733L59.661 4.918h3.708l4.092 9.767 4.233-9.767h3.759L69 18.514h-3.192zm26.565.001V.4h3.477v18.114h-3.477zm6.213 0V.4h3.477v18.114h-3.477zm13.274.402c-5.272 0-7.613-2.743-7.613-6.905V11.8c0-4.209 2.837-7.26 7.779-7.26 5.06 0 7.566 3.098 7.566 7v1.442h-11.982c.331 2.057 1.773 3.146 4.444 3.146 1.963 0 3.051-.568 3.595-1.632h3.784c-1.089 2.979-3.665 4.422-7.573 4.422zm-4.208-8.537h8.517c-.307-2.057-1.608-3.144-4.067-3.144-2.53 0-4.019 1.158-4.445 3.144h-.005zM120.591 24v-3.002h1.726c2.034 0 2.648-.52 3.547-2.27l.331-.71-6.337-13.1h3.736l4.186 9.104.142.543.164-.52 4.14-9.127h3.687l-6.88 14.407c-1.986 4.092-2.861 4.681-6.811 4.681L120.591 24zM22.214 5.132c-.612.016-1.223-.059-1.813-.223v13.605h3.547V4.898a5.68 5.68 0 0 1-1.734.234zm.019-1.454c1.252 0 1.928-.458 1.928-1.829C24.161.537 23.505 0 22.233 0h.006c-1.279 0-1.928.537-1.928 1.849 0 1.371.675 1.829 1.928 1.829h-.006zM135.756.355l1.847.219 2.631.501c.821.202 1.686.419 2.43.832 1.296.719 1.56 2.222 1.56 3.592v2.784c-5.913-3.023-8.468-7.928-8.468-7.928zm17.992 0L151.9.573l-2.63.501c-.821.202-1.686.419-2.43.832-1.298.719-1.56 2.222-1.56 3.592v2.784c5.913-3.023 8.468-7.928 8.468-7.928zM86.687 15.76c-.992 1.918-3.097 3.309-6.337 3.309-3.263 0-4.987-1.371-4.987-3.735 0-1.534.662-2.696 1.918-3.382 1.253-.708 2.359-.884 5.638-1.279l3.609-.334V9.115c0-1.04-.827-1.821-3.263-1.821-2.72 0-3.784.895-3.926 2.557h-3.575c.307-3.288 2.86-5.156 7.259-5.156 4.753 0 6.833 1.584 6.833 5.084v8.891h-2.813l-.355-2.912zm-.173-3.258l-3.019.302c-2.034.213-2.932.384-3.571.757-.591.354-.932.767-.932 1.38v.024c0 .994 1.014 1.534 2.469 1.528 3.027-.024 5.053-2.004 5.053-3.991z"/></g><defs><clipPath id="A"><path fill="#fff" d="M0 0h153.746v24H0z"/></clipPath></defs></svg>